<?xml version="1.0" encoding="UTF-8"?>
<!--
  Tended — App Design Mockup
  4 screens: Dashboard · Inventory · Spending · Meals
  iPhone 14 viewport: 390 × 844
  Import into Figma: File → Place Image, or drag & drop the .svg
-->
<svg xmlns="http://www.w3.org/2000/svg"
     width="1720" height="884"
     viewBox="0 0 1720 884"
     font-family="-apple-system, BlinkMacSystemFont, 'Helvetica Neue', Arial, sans-serif">

  <!-- Canvas -->
  <rect width="1720" height="884" fill="#0a0e14"/>

  <!-- Screen labels -->
  <text x="215"  y="14" fill="#8b949e" font-size="11" font-weight="500" text-anchor="middle" letter-spacing="1">DASHBOARD</text>
  <text x="645"  y="14" fill="#8b949e" font-size="11" font-weight="500" text-anchor="middle" letter-spacing="1">INVENTORY</text>
  <text x="1075" y="14" fill="#8b949e" font-size="11" font-weight="500" text-anchor="middle" letter-spacing="1">SPENDING</text>
  <text x="1505" y="14" fill="#8b949e" font-size="11" font-weight="500" text-anchor="middle" letter-spacing="1">MEALS</text>


  <!-- ================================================
       SCREEN 1 — DASHBOARD  (x=20, y=20)
       ================================================ -->
  <svg x="20" y="20" width="390" height="844" overflow="hidden">
    <defs>
      <clipPath id="clip-dash"><rect width="390" height="844" rx="40" ry="40"/></clipPath>
    </defs>
    <g clip-path="url(#clip-dash)">

      <!-- bg -->
      <rect width="390" height="844" fill="#0d1117"/>

      <!-- status bar -->
      <text x="20" y="31" fill="#e6edf3" font-size="15" font-weight="500">9:41</text>
      <text x="370" y="31" fill="#e6edf3" font-size="12" text-anchor="end" opacity="0.7">●●●  ▓▓▓▓</text>

      <!-- placeholder content -->
      <text x="195" y="416" fill="#8b949e" font-size="15" font-weight="400" text-anchor="middle">Dashboard</text>
      <text x="195" y="436" fill="#21262d" font-size="13" font-weight="400" text-anchor="middle">Coming soon</text>

      <!-- ---- tab bar ---- -->
      <rect y="761" width="390" height="83" fill="#161b22"/>
      <line x1="0" y1="761" x2="390" y2="761" stroke="#21262d" stroke-width="0.5"/>
      <!-- Dashboard (active) -->
      <g transform="translate(39,775)">
        <polygon points="10,1 19,9 1,9" fill="#388bfd"/>
        <rect x="3" y="9" width="14" height="9" fill="#388bfd"/>
        <rect x="7" y="12" width="6" height="6" fill="#161b22"/>
      </g>
      <text x="49" y="804" fill="#388bfd" font-size="11" font-weight="500" text-anchor="middle">Dashboard</text>
      <!-- Inventory -->
      <g transform="translate(136,777)">
        <rect x="0" y="0" width="20" height="3" rx="1" fill="#8b949e"/>
        <rect x="0" y="6" width="20" height="3" rx="1" fill="#8b949e"/>
        <rect x="0" y="12" width="20" height="3" rx="1" fill="#8b949e"/>
      </g>
      <text x="146" y="804" fill="#8b949e" font-size="11" text-anchor="middle">Inventory</text>
      <!-- Spending -->
      <circle cx="244" cy="784" r="9" fill="none" stroke="#8b949e" stroke-width="1.5"/>
      <text x="244" y="784" fill="#8b949e" font-size="12" font-weight="500" text-anchor="middle" dominant-baseline="central">$</text>
      <text x="244" y="804" fill="#8b949e" font-size="11" text-anchor="middle">Spending</text>
      <!-- Meals -->
      <g transform="translate(331,773)">
        <line x1="5" y1="2" x2="5" y2="20" stroke="#8b949e" stroke-width="1.5" stroke-linecap="round"/>
        <line x1="5" y1="2" x2="3" y2="7" stroke="#8b949e" stroke-width="1.5" stroke-linecap="round"/>
        <line x1="5" y1="2" x2="7" y2="7" stroke="#8b949e" stroke-width="1.5" stroke-linecap="round"/>
        <path d="M11,2 L11,8 Q13,9.5 15,8 L15,2" fill="none" stroke="#8b949e" stroke-width="1.5" stroke-linecap="round" stroke-linejoin="round"/>
        <line x1="13" y1="8" x2="13" y2="20" stroke="#8b949e" stroke-width="1.5" stroke-linecap="round"/>
      </g>
      <text x="341" y="804" fill="#8b949e" font-size="11" text-anchor="middle">Meals</text>

    </g>
  </svg>
  <rect x="20" y="20" width="390" height="844" rx="40" fill="none" stroke="#30363d" stroke-width="1.5"/>


  <!-- ================================================
       SCREEN 2 — INVENTORY  (x=450, y=20)
       ================================================ -->
  <svg x="450" y="20" width="390" height="844" overflow="hidden">
    <defs>
      <clipPath id="clip-inv"><rect width="390" height="844" rx="40" ry="40"/></clipPath>
    </defs>
    <g clip-path="url(#clip-inv)">

      <!-- bg -->
      <rect width="390" height="844" fill="#0d1117"/>

      <!-- status bar -->
      <text x="20" y="31" fill="#e6edf3" font-size="15" font-weight="500">9:41</text>

      <!-- header -->
      <text x="16" y="72" fill="#e6edf3" font-size="20" font-weight="500">Inventory</text>
      <text x="374" y="72" fill="#8b949e" font-size="13" font-weight="400" text-anchor="end">12 items</text>

      <!-- filter pills (y=88–116) -->
      <rect x="16"  y="88" width="34" height="28" rx="14" fill="#388bfd"/>
      <text x="33"  y="107" fill="#e6edf3" font-size="13" font-weight="500" text-anchor="middle">All</text>

      <rect x="58"  y="88" width="52" height="28" rx="14" fill="#161b22" stroke="#21262d" stroke-width="0.5"/>
      <text x="84"  y="107" fill="#8b949e" font-size="13" font-weight="500" text-anchor="middle">Pantry</text>

      <rect x="118" y="88" width="46" height="28" rx="14" fill="#161b22" stroke="#21262d" stroke-width="0.5"/>
      <text x="141" y="107" fill="#8b949e" font-size="13" font-weight="500" text-anchor="middle">Dairy</text>

      <rect x="172" y="88" width="64" height="28" rx="14" fill="#161b22" stroke="#21262d" stroke-width="0.5"/>
      <text x="204" y="107" fill="#8b949e" font-size="13" font-weight="500" text-anchor="middle">Cleaning</text>

      <rect x="244" y="88" width="52" height="28" rx="14" fill="#161b22" stroke="#21262d" stroke-width="0.5"/>
      <text x="270" y="107" fill="#8b949e" font-size="13" font-weight="500" text-anchor="middle">Bakery</text>

      <!-- ---- item rows (paddingHorizontal=16) ---- -->

      <!-- ITEM 1: Olive Oil — OK — 72% -->
      <text x="16"  y="143" fill="#e6edf3" font-size="15" font-weight="500">Olive Oil</text>
      <rect x="344" y="129" width="30" height="18" rx="8" fill="none" stroke="#3fb950" stroke-width="0.5"/>
      <text x="359" y="138" fill="#3fb950" font-size="11" font-weight="500" text-anchor="middle" dominant-baseline="central">OK</text>
      <text x="16"  y="163" fill="#8b949e" font-size="13">Pantry</text>
      <text x="374" y="163" fill="#8b949e" font-size="13" text-anchor="end">72%</text>
      <rect x="16"  y="170" width="358" height="4" rx="2" fill="#161b22"/>
      <rect x="16"  y="170" width="258" height="4" rx="2" fill="#3fb950"/>
      <line x1="16" y1="186" x2="374" y2="186" stroke="#21262d" stroke-width="0.5"/>

      <!-- ITEM 2: Whole Milk — Low — 15% -->
      <text x="16"  y="209" fill="#e6edf3" font-size="15" font-weight="500">Whole Milk</text>
      <rect x="338" y="195" width="36" height="18" rx="8" fill="none" stroke="#d29922" stroke-width="0.5"/>
      <text x="356" y="204" fill="#d29922" font-size="11" font-weight="500" text-anchor="middle" dominant-baseline="central">Low</text>
      <text x="16"  y="229" fill="#8b949e" font-size="13">Dairy</text>
      <text x="374" y="229" fill="#8b949e" font-size="13" text-anchor="end">15%</text>
      <rect x="16"  y="236" width="358" height="4" rx="2" fill="#161b22"/>
      <rect x="16"  y="236" width="54"  height="4" rx="2" fill="#d29922"/>
      <line x1="16" y1="252" x2="374" y2="252" stroke="#21262d" stroke-width="0.5"/>

      <!-- ITEM 3: Paper Towels — Critical — 0% -->
      <text x="16"  y="275" fill="#e6edf3" font-size="15" font-weight="500">Paper Towels</text>
      <rect x="318" y="261" width="56" height="18" rx="8" fill="none" stroke="#f85149" stroke-width="0.5"/>
      <text x="346" y="270" fill="#f85149" font-size="11" font-weight="500" text-anchor="middle" dominant-baseline="central">Critical</text>
      <text x="16"  y="295" fill="#8b949e" font-size="13">Cleaning</text>
      <text x="374" y="295" fill="#8b949e" font-size="13" text-anchor="end">0%</text>
      <rect x="16"  y="302" width="358" height="4" rx="2" fill="#161b22"/>
      <line x1="16" y1="318" x2="374" y2="318" stroke="#21262d" stroke-width="0.5"/>

      <!-- ITEM 4: Spaghetti — OK — 58% -->
      <text x="16"  y="341" fill="#e6edf3" font-size="15" font-weight="500">Spaghetti</text>
      <rect x="344" y="327" width="30" height="18" rx="8" fill="none" stroke="#3fb950" stroke-width="0.5"/>
      <text x="359" y="336" fill="#3fb950" font-size="11" font-weight="500" text-anchor="middle" dominant-baseline="central">OK</text>
      <text x="16"  y="361" fill="#8b949e" font-size="13">Pantry</text>
      <text x="374" y="361" fill="#8b949e" font-size="13" text-anchor="end">58%</text>
      <rect x="16"  y="368" width="358" height="4" rx="2" fill="#161b22"/>
      <rect x="16"  y="368" width="207" height="4" rx="2" fill="#3fb950"/>
      <line x1="16" y1="384" x2="374" y2="384" stroke="#21262d" stroke-width="0.5"/>

      <!-- ITEM 5: Dish Soap — OK — 44% -->
      <text x="16"  y="407" fill="#e6edf3" font-size="15" font-weight="500">Dish Soap</text>
      <rect x="344" y="393" width="30" height="18" rx="8" fill="none" stroke="#3fb950" stroke-width="0.5"/>
      <text x="359" y="402" fill="#3fb950" font-size="11" font-weight="500" text-anchor="middle" dominant-baseline="central">OK</text>
      <text x="16"  y="427" fill="#8b949e" font-size="13">Cleaning</text>
      <text x="374" y="427" fill="#8b949e" font-size="13" text-anchor="end">44%</text>
      <rect x="16"  y="434" width="358" height="4" rx="2" fill="#161b22"/>
      <rect x="16"  y="434" width="157" height="4" rx="2" fill="#3fb950"/>
      <line x1="16" y1="450" x2="374" y2="450" stroke="#21262d" stroke-width="0.5"/>

      <!-- ITEM 6: Sourdough Bread — Low — 20% -->
      <text x="16"  y="473" fill="#e6edf3" font-size="15" font-weight="500">Sourdough Bread</text>
      <rect x="338" y="459" width="36" height="18" rx="8" fill="none" stroke="#d29922" stroke-width="0.5"/>
      <text x="356" y="468" fill="#d29922" font-size="11" font-weight="500" text-anchor="middle" dominant-baseline="central">Low</text>
      <text x="16"  y="493" fill="#8b949e" font-size="13">Bakery</text>
      <text x="374" y="493" fill="#8b949e" font-size="13" text-anchor="end">20%</text>
      <rect x="16"  y="500" width="358" height="4" rx="2" fill="#161b22"/>
      <rect x="16"  y="500" width="72"  height="4" rx="2" fill="#d29922"/>
      <line x1="16" y1="516" x2="374" y2="516" stroke="#21262d" stroke-width="0.5"/>

      <!-- ITEM 7: Garlic — OK — 90% -->
      <text x="16"  y="539" fill="#e6edf3" font-size="15" font-weight="500">Garlic</text>
      <rect x="344" y="525" width="30" height="18" rx="8" fill="none" stroke="#3fb950" stroke-width="0.5"/>
      <text x="359" y="534" fill="#3fb950" font-size="11" font-weight="500" text-anchor="middle" dominant-baseline="central">OK</text>
      <text x="16"  y="559" fill="#8b949e" font-size="13">Produce</text>
      <text x="374" y="559" fill="#8b949e" font-size="13" text-anchor="end">90%</text>
      <rect x="16"  y="566" width="358" height="4" rx="2" fill="#161b22"/>
      <rect x="16"  y="566" width="322" height="4" rx="2" fill="#3fb950"/>

      <!-- FAB -->
      <circle cx="350" cy="710" r="26" fill="#388bfd"/>
      <text x="350" y="710" fill="#e6edf3" font-size="30" font-weight="300" text-anchor="middle" dominant-baseline="central">+</text>

      <!-- ---- tab bar ---- -->
      <rect y="761" width="390" height="83" fill="#161b22"/>
      <line x1="0" y1="761" x2="390" y2="761" stroke="#21262d" stroke-width="0.5"/>
      <!-- Dashboard -->
      <g transform="translate(39,775)">
        <polygon points="10,1 19,9 1,9" fill="#8b949e"/>
        <rect x="3" y="9" width="14" height="9" fill="#8b949e"/>
        <rect x="7" y="12" width="6" height="6" fill="#161b22"/>
      </g>
      <text x="49" y="804" fill="#8b949e" font-size="11" text-anchor="middle">Dashboard</text>
      <!-- Inventory (active) -->
      <g transform="translate(136,777)">
        <rect x="0" y="0" width="20" height="3" rx="1" fill="#388bfd"/>
        <rect x="0" y="6" width="20" height="3" rx="1" fill="#388bfd"/>
        <rect x="0" y="12" width="20" height="3" rx="1" fill="#388bfd"/>
      </g>
      <text x="146" y="804" fill="#388bfd" font-size="11" font-weight="500" text-anchor="middle">Inventory</text>
      <!-- Spending -->
      <circle cx="244" cy="784" r="9" fill="none" stroke="#8b949e" stroke-width="1.5"/>
      <text x="244" y="784" fill="#8b949e" font-size="12" font-weight="500" text-anchor="middle" dominant-baseline="central">$</text>
      <text x="244" y="804" fill="#8b949e" font-size="11" text-anchor="middle">Spending</text>
      <!-- Meals -->
      <g transform="translate(331,773)">
        <line x1="5" y1="2" x2="5" y2="20" stroke="#8b949e" stroke-width="1.5" stroke-linecap="round"/>
        <line x1="5" y1="2" x2="3" y2="7" stroke="#8b949e" stroke-width="1.5" stroke-linecap="round"/>
        <line x1="5" y1="2" x2="7" y2="7" stroke="#8b949e" stroke-width="1.5" stroke-linecap="round"/>
        <path d="M11,2 L11,8 Q13,9.5 15,8 L15,2" fill="none" stroke="#8b949e" stroke-width="1.5" stroke-linecap="round" stroke-linejoin="round"/>
        <line x1="13" y1="8" x2="13" y2="20" stroke="#8b949e" stroke-width="1.5" stroke-linecap="round"/>
      </g>
      <text x="341" y="804" fill="#8b949e" font-size="11" text-anchor="middle">Meals</text>

    </g>
  </svg>
  <rect x="450" y="20" width="390" height="844" rx="40" fill="none" stroke="#30363d" stroke-width="1.5"/>


  <!-- ================================================
       SCREEN 3 — SPENDING  (x=880, y=20)
       ================================================ -->
  <svg x="880" y="20" width="390" height="844" overflow="hidden">
    <defs>
      <clipPath id="clip-spend"><rect width="390" height="844" rx="40" ry="40"/></clipPath>
    </defs>
    <g clip-path="url(#clip-spend)">

      <!-- bg -->
      <rect width="390" height="844" fill="#0d1117"/>

      <!-- status bar -->
      <text x="20" y="31" fill="#e6edf3" font-size="15" font-weight="500">9:41</text>

      <!-- header -->
      <text x="16" y="72" fill="#e6edf3" font-size="20" font-weight="500">Spending</text>
      <rect x="222" y="58" width="152" height="28" rx="8" fill="#161b22" stroke="#21262d" stroke-width="0.5"/>
      <text x="298" y="72" fill="#8b949e" font-size="13" font-weight="500" text-anchor="middle">📷  Scan Receipt</text>

      <!-- month selector -->
      <text x="80"  y="108" fill="#e6edf3" font-size="22" text-anchor="middle">‹</text>
      <text x="195" y="108" fill="#e6edf3" font-size="15" font-weight="500" text-anchor="middle">March 2026</text>
      <text x="310" y="108" fill="#8b949e" font-size="22" text-anchor="middle">›</text>

      <!-- metric cards -->
      <rect x="16"  y="124" width="172" height="76" rx="12" fill="#161b22" stroke="#21262d" stroke-width="0.5"/>
      <text x="28"  y="143" fill="#8b949e" font-size="11" font-weight="500">Total spent</text>
      <text x="28"  y="168" fill="#e6edf3" font-size="20" font-weight="500">$312.40</text>

      <rect x="202" y="124" width="172" height="76" rx="12" fill="#161b22" stroke="#21262d" stroke-width="0.5"/>
      <text x="214" y="143" fill="#8b949e" font-size="11" font-weight="500">Wasted</text>
      <text x="214" y="168" fill="#d29922" font-size="20" font-weight="500">$28.50</text>
      <text x="214" y="184" fill="#8b949e" font-size="11" font-weight="400">9% of total</text>

      <!-- by category -->
      <text x="16" y="228" fill="#e6edf3" font-size="15" font-weight="500">By category</text>
      <rect x="16" y="236" width="358" height="148" rx="12" fill="#161b22" stroke="#21262d" stroke-width="0.5"/>

      <text x="28"  y="260" fill="#e6edf3" font-size="15" font-weight="400">Groceries</text>
      <text x="28"  y="275" fill="#8b949e" font-size="11" font-weight="400">8 entries</text>
      <text x="362" y="261" fill="#e6edf3" font-size="15" font-weight="500" text-anchor="end">$184.20</text>
      <line x1="28" y1="284" x2="362" y2="284" stroke="#21262d" stroke-width="0.5"/>

      <text x="28"  y="306" fill="#e6edf3" font-size="15" font-weight="400">Pantry</text>
      <text x="28"  y="321" fill="#8b949e" font-size="11" font-weight="400">5 entries</text>
      <text x="362" y="307" fill="#e6edf3" font-size="15" font-weight="500" text-anchor="end">$76.10</text>
      <line x1="28" y1="330" x2="362" y2="330" stroke="#21262d" stroke-width="0.5"/>

      <text x="28"  y="352" fill="#e6edf3" font-size="15" font-weight="400">Cleaning</text>
      <text x="28"  y="367" fill="#8b949e" font-size="11" font-weight="400">3 entries</text>
      <text x="362" y="353" fill="#e6edf3" font-size="15" font-weight="500" text-anchor="end">$38.70</text>

      <!-- entries header -->
      <text x="16"  y="408" fill="#e6edf3" font-size="15" font-weight="500">Entries</text>
      <text x="374" y="408" fill="#8b949e" font-size="13" text-anchor="end">4 entries</text>

      <!-- entry 1: Whole Milk -->
      <rect x="16" y="416" width="358" height="56" rx="12" fill="#161b22" stroke="#21262d" stroke-width="0.5"/>
      <text x="28"  y="438" fill="#e6edf3" font-size="15" font-weight="400">Whole Milk</text>
      <text x="28"  y="455" fill="#8b949e" font-size="11">Groceries · Mar 27</text>
      <text x="362" y="438" fill="#e6edf3" font-size="15" font-weight="500" text-anchor="end">$4.99</text>
      <text x="362" y="455" fill="#8b949e" font-size="13" text-anchor="end">✕</text>

      <!-- entry 2: Paper Towels -->
      <rect x="16" y="484" width="358" height="56" rx="12" fill="#161b22" stroke="#21262d" stroke-width="0.5"/>
      <text x="28"  y="506" fill="#e6edf3" font-size="15" font-weight="400">Paper Towels</text>
      <text x="28"  y="523" fill="#8b949e" font-size="11">Cleaning · Mar 25</text>
      <text x="362" y="506" fill="#e6edf3" font-size="15" font-weight="500" text-anchor="end">$12.49</text>
      <text x="362" y="523" fill="#8b949e" font-size="13" text-anchor="end">✕</text>

      <!-- entry 3: Sourdough (waste) -->
      <rect x="16" y="552" width="358" height="56" rx="12" fill="#161b22" stroke="#21262d" stroke-width="0.5"/>
      <text x="28"  y="574" fill="#e6edf3" font-size="15" font-weight="400">Sourdough</text>
      <rect x="120" y="562" width="42" height="17" rx="4" fill="none" stroke="#d29922" stroke-width="0.5"/>
      <text x="141" y="570.5" fill="#d29922" font-size="10" font-weight="500" text-anchor="middle" dominant-baseline="central">Waste</text>
      <text x="28"  y="591" fill="#8b949e" font-size="11">Groceries · Mar 24</text>
      <text x="362" y="574" fill="#d29922" font-size="15" font-weight="500" text-anchor="end">$6.99</text>
      <text x="362" y="591" fill="#8b949e" font-size="13" text-anchor="end">✕</text>

      <!-- entry 4: Spaghetti -->
      <rect x="16" y="620" width="358" height="56" rx="12" fill="#161b22" stroke="#21262d" stroke-width="0.5"/>
      <text x="28"  y="642" fill="#e6edf3" font-size="15" font-weight="400">Spaghetti</text>
      <text x="28"  y="659" fill="#8b949e" font-size="11">Pantry · Mar 22</text>
      <text x="362" y="642" fill="#e6edf3" font-size="15" font-weight="500" text-anchor="end">$3.49</text>
      <text x="362" y="659" fill="#8b949e" font-size="13" text-anchor="end">✕</text>

      <!-- FAB -->
      <circle cx="350" cy="710" r="26" fill="#388bfd"/>
      <text x="350" y="710" fill="#e6edf3" font-size="30" font-weight="300" text-anchor="middle" dominant-baseline="central">+</text>

      <!-- ---- tab bar ---- -->
      <rect y="761" width="390" height="83" fill="#161b22"/>
      <line x1="0" y1="761" x2="390" y2="761" stroke="#21262d" stroke-width="0.5"/>
      <!-- Dashboard -->
      <g transform="translate(39,775)">
        <polygon points="10,1 19,9 1,9" fill="#8b949e"/>
        <rect x="3" y="9" width="14" height="9" fill="#8b949e"/>
        <rect x="7" y="12" width="6" height="6" fill="#161b22"/>
      </g>
      <text x="49" y="804" fill="#8b949e" font-size="11" text-anchor="middle">Dashboard</text>
      <!-- Inventory -->
      <g transform="translate(136,777)">
        <rect x="0" y="0" width="20" height="3" rx="1" fill="#8b949e"/>
        <rect x="0" y="6" width="20" height="3" rx="1" fill="#8b949e"/>
        <rect x="0" y="12" width="20" height="3" rx="1" fill="#8b949e"/>
      </g>
      <text x="146" y="804" fill="#8b949e" font-size="11" text-anchor="middle">Inventory</text>
      <!-- Spending (active) -->
      <circle cx="244" cy="784" r="9" fill="none" stroke="#388bfd" stroke-width="1.5"/>
      <text x="244" y="784" fill="#388bfd" font-size="12" font-weight="500" text-anchor="middle" dominant-baseline="central">$</text>
      <text x="244" y="804" fill="#388bfd" font-size="11" font-weight="500" text-anchor="middle">Spending</text>
      <!-- Meals -->
      <g transform="translate(331,773)">
        <line x1="5" y1="2" x2="5" y2="20" stroke="#8b949e" stroke-width="1.5" stroke-linecap="round"/>
        <line x1="5" y1="2" x2="3" y2="7" stroke="#8b949e" stroke-width="1.5" stroke-linecap="round"/>
        <line x1="5" y1="2" x2="7" y2="7" stroke="#8b949e" stroke-width="1.5" stroke-linecap="round"/>
        <path d="M11,2 L11,8 Q13,9.5 15,8 L15,2" fill="none" stroke="#8b949e" stroke-width="1.5" stroke-linecap="round" stroke-linejoin="round"/>
        <line x1="13" y1="8" x2="13" y2="20" stroke="#8b949e" stroke-width="1.5" stroke-linecap="round"/>
      </g>
      <text x="341" y="804" fill="#8b949e" font-size="11" text-anchor="middle">Meals</text>

    </g>
  </svg>
  <rect x="880" y="20" width="390" height="844" rx="40" fill="none" stroke="#30363d" stroke-width="1.5"/>


  <!-- ================================================
       SCREEN 4 — MEALS  (x=1310, y=20)
       ================================================ -->
  <svg x="1310" y="20" width="390" height="844" overflow="hidden">
    <defs>
      <clipPath id="clip-meals"><rect width="390" height="844" rx="40" ry="40"/></clipPath>
    </defs>
    <g clip-path="url(#clip-meals)">

      <!-- bg -->
      <rect width="390" height="844" fill="#0d1117"/>

      <!-- status bar -->
      <text x="20" y="31" fill="#e6edf3" font-size="15" font-weight="500">9:41</text>

      <!-- header -->
      <text x="16" y="72" fill="#e6edf3" font-size="20" font-weight="500">Meals</text>

      <!-- suggestions section header -->
      <text x="16"  y="104" fill="#e6edf3" font-size="15" font-weight="500">Suggested for you</text>
      <text x="374" y="104" fill="#388bfd" font-size="13" font-weight="500" text-anchor="end">Refresh</text>

      <!-- meal card 1: Pasta Aglio e Olio (x=16, y=116, w=220, h=200) -->
      <rect x="16" y="116" width="220" height="200" rx="12" fill="#161b22" stroke="#21262d" stroke-width="0.5"/>
      <text x="28" y="138" fill="#e6edf3" font-size="15" font-weight="500">Pasta Aglio</text>
      <text x="28" y="156" fill="#e6edf3" font-size="15" font-weight="500">e Olio</text>
      <text x="226" y="138" fill="#8b949e" font-size="11" text-anchor="end">⏱ 20m</text>
      <text x="28" y="175" fill="#8b949e" font-size="11">Classic Italian pasta with</text>
      <text x="28" y="189" fill="#8b949e" font-size="11">garlic and olive oil</text>
      <text x="28" y="205" fill="#8b949e" font-size="11">garlic, pasta, olive oil +2</text>
      <!-- tags -->
      <rect x="28" y="213" width="40" height="16" rx="8" fill="none" stroke="#388bfd" stroke-width="0.5"/>
      <text x="48" y="221" fill="#388bfd" font-size="10" font-weight="500" text-anchor="middle" dominant-baseline="central">quick</text>
      <rect x="76" y="213" width="64" height="16" rx="8" fill="none" stroke="#3fb950" stroke-width="0.5"/>
      <text x="108" y="221" fill="#3fb950" font-size="10" font-weight="500" text-anchor="middle" dominant-baseline="central">vegetarian</text>
      <!-- save button -->
      <rect x="28" y="236" width="196" height="34" rx="8" fill="#388bfd"/>
      <text x="126" y="253" fill="#e6edf3" font-size="13" font-weight="500" text-anchor="middle" dominant-baseline="central">Save</text>

      <!-- meal card 2: Garlic Butter Chicken (x=248, y=116, partially visible) -->
      <rect x="248" y="116" width="220" height="200" rx="12" fill="#161b22" stroke="#21262d" stroke-width="0.5"/>
      <text x="260" y="138" fill="#e6edf3" font-size="15" font-weight="500">Garlic Butter</text>
      <text x="260" y="156" fill="#e6edf3" font-size="15" font-weight="500">Chicken</text>
      <text x="458" y="138" fill="#8b949e" font-size="11" text-anchor="end">⏱ 30m</text>
      <text x="260" y="175" fill="#8b949e" font-size="11">Tender chicken in rich</text>
      <text x="260" y="189" fill="#8b949e" font-size="11">garlic herb butter sauce</text>
      <text x="260" y="205" fill="#8b949e" font-size="11">chicken, butter, garlic +3</text>
      <rect x="260" y="213" width="56" height="16" rx="8" fill="none" stroke="#f85149" stroke-width="0.5"/>
      <text x="288" y="221" fill="#f85149" font-size="10" font-weight="500" text-anchor="middle" dominant-baseline="central">protein</text>
      <rect x="260" y="236" width="196" height="34" rx="8" fill="#388bfd"/>
      <text x="358" y="253" fill="#e6edf3" font-size="13" font-weight="500" text-anchor="middle" dominant-baseline="central">Save</text>

      <!-- saved meals section header -->
      <text x="16"  y="340" fill="#e6edf3" font-size="15" font-weight="500">Saved meals</text>
      <text x="374" y="340" fill="#8b949e" font-size="13" text-anchor="end">2 meals</text>

      <!-- saved meal 1 -->
      <rect x="16" y="352" width="358" height="58" rx="12" fill="#161b22" stroke="#21262d" stroke-width="0.5"/>
      <text x="28" y="374" fill="#e6edf3" font-size="15" font-weight="400">Garlic Butter Pasta</text>
      <text x="28" y="393" fill="#8b949e" font-size="11">⏱ 15m · pasta, butter, garlic...</text>
      <text x="362" y="381" fill="#8b949e" font-size="13" text-anchor="end">✕</text>

      <!-- saved meal 2 -->
      <rect x="16" y="422" width="358" height="58" rx="12" fill="#161b22" stroke="#21262d" stroke-width="0.5"/>
      <text x="28" y="444" fill="#e6edf3" font-size="15" font-weight="400">Veggie Stir Fry</text>
      <text x="28" y="463" fill="#8b949e" font-size="11">⏱ 20m · soy sauce, rice, onion...</text>
      <text x="362" y="451" fill="#8b949e" font-size="13" text-anchor="end">✕</text>

      <!-- ---- tab bar ---- -->
      <rect y="761" width="390" height="83" fill="#161b22"/>
      <line x1="0" y1="761" x2="390" y2="761" stroke="#21262d" stroke-width="0.5"/>
      <!-- Dashboard -->
      <g transform="translate(39,775)">
        <polygon points="10,1 19,9 1,9" fill="#8b949e"/>
        <rect x="3" y="9" width="14" height="9" fill="#8b949e"/>
        <rect x="7" y="12" width="6" height="6" fill="#161b22"/>
      </g>
      <text x="49" y="804" fill="#8b949e" font-size="11" text-anchor="middle">Dashboard</text>
      <!-- Inventory -->
      <g transform="translate(136,777)">
        <rect x="0" y="0" width="20" height="3" rx="1" fill="#8b949e"/>
        <rect x="0" y="6" width="20" height="3" rx="1" fill="#8b949e"/>
        <rect x="0" y="12" width="20" height="3" rx="1" fill="#8b949e"/>
      </g>
      <text x="146" y="804" fill="#8b949e" font-size="11" text-anchor="middle">Inventory</text>
      <!-- Spending -->
      <circle cx="244" cy="784" r="9" fill="none" stroke="#8b949e" stroke-width="1.5"/>
      <text x="244" y="784" fill="#8b949e" font-size="12" font-weight="500" text-anchor="middle" dominant-baseline="central">$</text>
      <text x="244" y="804" fill="#8b949e" font-size="11" text-anchor="middle">Spending</text>
      <!-- Meals (active) -->
      <g transform="translate(331,773)">
        <line x1="5" y1="2" x2="5" y2="20" stroke="#388bfd" stroke-width="1.5" stroke-linecap="round"/>
        <line x1="5" y1="2" x2="3" y2="7" stroke="#388bfd" stroke-width="1.5" stroke-linecap="round"/>
        <line x1="5" y1="2" x2="7" y2="7" stroke="#388bfd" stroke-width="1.5" stroke-linecap="round"/>
        <path d="M11,2 L11,8 Q13,9.5 15,8 L15,2" fill="none" stroke="#388bfd" stroke-width="1.5" stroke-linecap="round" stroke-linejoin="round"/>
        <line x1="13" y1="8" x2="13" y2="20" stroke="#388bfd" stroke-width="1.5" stroke-linecap="round"/>
      </g>
      <text x="341" y="804" fill="#388bfd" font-size="11" font-weight="500" text-anchor="middle">Meals</text>

    </g>
  </svg>
  <rect x="1310" y="20" width="390" height="844" rx="40" fill="none" stroke="#30363d" stroke-width="1.5"/>

</svg>
